<svg width="300" height="284" viewBox="0 0 300 284" fill="none" xmlns="http://www.w3.org/2000/svg">
<rect x="0.5" y="1.4834" width="299" height="281.983" rx="23.5" fill="white"/>
<rect x="0.5" y="1.4834" width="299" height="281.983" rx="23.5" stroke="#E1E2E6"/>
<path d="M199.074 135.508L199.074 135.508L200.39 136.392C200.298 136.584 200.18 136.826 200.06 137.072C199.928 137.344 199.792 137.619 199.684 137.834C199.629 137.942 199.583 138.032 199.548 138.099C199.516 138.159 199.503 138.18 199.503 138.181L199.485 138.204L199.466 138.242C195.396 146.106 187.264 145.94 183.565 145.865C183.414 145.862 183.271 145.859 183.135 145.857L182.791 145.851L182.663 146.172C177.518 159.074 170.732 168.155 162.8 174.008C154.872 179.859 145.767 182.509 135.94 182.5C123.051 182.488 114.484 178.304 108.83 172.642C107.913 171.722 107.068 170.769 106.299 169.784L106.299 169.784C99.5155 161.1 98.45 150.464 98.5017 144.602H137.589C142.095 144.602 145.992 144.628 149.388 144.65C155.637 144.691 160.191 144.721 163.724 144.56C169.201 144.309 172.309 143.596 175.546 141.719L176.055 141.423L175.681 140.968C174.093 139.039 173.249 136.346 172.996 133.919C172.677 129.971 173.586 125.642 175.713 122.413L176.553 121.145L177.799 121.981C182.242 125.449 184.615 129.373 184.865 133.993L184.898 134.61L185.494 134.449C187.837 133.818 190.642 133.675 193.176 133.903C195.729 134.132 197.917 134.729 199.074 135.508ZM113.21 139.748V129.618H123.34V139.748H113.21ZM127.59 139.748V129.618H137.72V139.748H127.59ZM141.969 139.748V129.618H152.1V139.748H141.969ZM156.348 139.748V129.618H166.478V139.748H156.348ZM98.8304 139.748V129.618H108.961V139.748H98.8304ZM113.21 125.69V115.559H123.34V125.69H113.21ZM127.59 125.69V115.559H137.72V125.69H127.59ZM141.969 125.69V115.559H152.1V125.69H141.969ZM141.969 111.63V101.5H152.1V111.63H141.969Z" stroke="#1D63ED"/>
</svg>
